<svg id="Layer_1" xmlns="http://www.w3.org/2000/svg" xmlns:xlink="http://www.w3.org/1999/xlink" viewBox="0 0 1239.3 310.1" style="enable-background:new 0 0 1239.3 310.1"><style>.st0{fill:#404041}.st1{fill:#fff}.st2{fill:#f38020}.st3{fill:#faae40}</style><g><g><path class="st0" d="M1158.5 187.7c-3.4.0-6.1-2.7-6.1-6.1.0-3.3 2.7-6.1 6.1-6.1 3.3.0 6.1 2.7 6.1 6.1C1164.6 185 1161.8 187.7 1158.5 187.7m0-11c-2.7.0-4.9 2.2-4.9 4.9.0 2.7 2.2 4.9 4.9 4.9 2.7.0 4.9-2.2 4.9-4.9C1163.4 178.9 1161.2 176.7 1158.5 176.7M1161.6 184.8h-1.4l-1.2-2.3h-1.6v2.3h-1.3v-6.7h3.2c1.4.0 2.3.9 2.3 2.2.0 1-.6 1.7-1.4 2L1161.6 184.8zM1159.2 181.3c.5.0 1-.3 1-1 0-.8-.4-1-1-1h-2v2h2v0z"/><path class="st0" d="M523 174.9H538.6v42.5H565.7V231H523z"/><path class="st0" d="M581.8 203.1V203c0-16.1 13-29.2 30.3-29.2s30.1 12.9 30.1 29v.2c0 16.1-13 29.2-30.3 29.2C594.7 232.1 581.8 219.2 581.8 203.1M626.4 203.1V203c0-8.1-5.8-15.1-14.4-15.1-8.5.0-14.2 6.9-14.2 15v.2c0 8.1 5.8 15.1 14.3 15.1C620.7 218.1 626.4 211.2 626.4 203.1"/><path class="st0" d="M661.3 206.4v-31.5h15.8v31.2c0 8.1 4.1 11.9 10.3 11.9s10.3-3.7 10.3-11.5v-31.6h15.8V206c0 18.1-10.3 26-26.3 26C671.3 232.1 661.3 224 661.3 206.4"/><path class="st0" d="M737.3 174.9H759c20 0 31.7 11.5 31.7 27.7v.2c0 16.2-11.8 28.2-32 28.2h-21.3L737.3 174.9v0zM759.2 217.2c9.3.0 15.5-5.1 15.5-14.2v-.2c0-9-6.2-14.2-15.5-14.2h-6.3v28.5L759.2 217.2v0z"/><path class="st0" d="M813.2 174.9H858.1V188.6H828.7v9.5H855.3V211H828.7v20H813.2z"/><path class="st0" d="M879.7 174.9h15.5v42.5H922.4V231H879.7z"/><path class="st0" d="M963 174.5h15l23.9 56.5h-16.7l-4.1-10h-21.6l-4 10h-16.3L963 174.5zM976.7 208.9l-6.2-15.9-6.3 15.9h12.5z"/><path class="st0" d="M1021.9 174.9h26.5c8.6.0 14.5 2.2 18.3 6.1 3.3 3.2 5 7.5 5 13.1v.2c0 8.6-4.6 14.3-11.5 17.2l13.4 19.6h-18l-11.3-17h-6.8v17h-15.5L1021.9 174.9v0zM1047.7 201.9c5.3.0 8.3-2.6 8.3-6.6V195c0-4.4-3.2-6.6-8.4-6.6h-10.2v13.5H1047.7v0z"/><path class="st0" d="M1094.1 174.9H1139.2V188.2H1109.5V196.6H1136.4V208.9H1109.5V217.8H1139.6V231h-45.5z"/><path class="st0" d="M489 209.7c-2.2 4.9-6.8 8.4-12.8 8.4-8.5.0-14.3-7.1-14.3-15.1v-.2c0-8.1 5.7-15 14.2-15 6.4.0 11.3 3.9 13.3 9.3h16.4c-2.6-13.4-14.4-23.3-29.6-23.3-17.3.0-30.3 13.1-30.3 29.2v.2c0 16.1 12.8 29 30.1 29 14.8.0 26.4-9.6 29.4-22.4L489 209.7v0z"/></g><g><path class="st1" d="M391.1 169.6 348.2 145 340.8 141.8 165.3 143.1v89L391.1 232.2z"/><path class="st2" d="M313 224c2.1-7.2 1.3-13.8-2.2-18.7-3.2-4.5-8.6-7.1-15.1-7.4l-123.1-1.6c-.8.0-1.5-.4-1.9-1-.4-.6-.5-1.4-.3-2.2.4-1.2 1.6-2.1 2.9-2.2l124.2-1.6c14.7-.7 30.7-12.6 36.3-27.2l7.1-18.5c.3-.8.4-1.6.2-2.4-8-36.2-40.3-63.2-78.9-63.2-35.6.0-65.8 23-76.6 54.9-7-5.2-15.9-8-25.5-7.1-17.1 1.7-30.8 15.4-32.5 32.5-.4 4.4-.1 8.7.9 12.7-27.9.8-50.2 23.6-50.2 51.7.0 2.5.2 5 .5 7.5.2 1.2 1.2 2.1 2.4 2.1h227.2c1.3.0 2.5-.9 2.9-2.2L313 224z"/><path class="st3" d="M352.2 144.9c-1.1.0-2.3.0-3.4.1-.8.0-1.5.6-1.8 1.4l-4.8 16.7c-2.1 7.2-1.3 13.8 2.2 18.7 3.2 4.5 8.6 7.1 15.1 7.4l26.2 1.6c.8.0 1.5.4 1.9 1 .4.6.5 1.5.3 2.2-.4 1.2-1.6 2.1-2.9 2.2l-27.3 1.6c-14.8.7-30.7 12.6-36.3 27.2l-2 5.1c-.4 1 .3 2 1.4 2h93.8c1.1.0 2.1-.7 2.4-1.8 1.6-5.8 2.5-11.9 2.5-18.2C419.5 175 389.4 144.9 352.2 144.9"/></g></g></svg>