<svg xmlns="http://www.w3.org/2000/svg" id="Apps-Visual-Studio-Community" width="64" height="64" enable-background="new 0 0 1024 1024" image-rendering="optimizeSpeed" viewBox="0 0 64 64"><defs><linearGradient id="b" x1="172.24" x2="172.24" y1="4.053" y2="193.39" gradientTransform="matrix(5.2645 0 0 5.0009 -2.3944 18.843)" gradientUnits="userSpaceOnUse"><stop offset="0" stop-color="#fff"/><stop offset="1" stop-color="#d9d5d5"/></linearGradient><linearGradient id="a" x1="99.036" x2="99.036" y1="-.505" y2="199.84" gradientTransform="matrix(.3 0 0 .29942 2 2.1247)" gradientUnits="userSpaceOnUse"><stop offset="0" stop-color="#15c4fc"/><stop offset="1" stop-color="#1863ee"/></linearGradient><filter id="c" width="1.072" height="1.072" x="-.036" y="-.036" color-interpolation-filters="sRGB"><feGaussianBlur stdDeviation="14.16"/></filter><filter id="d" width="1.099" height="1.056" x="-.05" y="-.028" color-interpolation-filters="sRGB"><feGaussianBlur stdDeviation="10.9"/></filter></defs><g stroke-width="15.652"><g transform="matrix(.063897 0 0 .06388 -.61977 -.78641) matrix(.99472 0 0 .99304 1.2112 5.8493)"><circle cx="512" cy="512" r="472" color="#000" enable-background="accumulate" filter="url(#c)" opacity=".25"/><path fill="url(#a)" stroke-width=".994" d="m32 2.125c-16.569 783e-7-30 13.405-30 29.941 559e-7 16.536 13.431 29.941 30 29.941 2.6287-.0039 5.2455-.35257 7.7832-1.0371-2.578-9.9562-2.1758-29.336-2.1758-29.336h-9.1484c0-15.468 4.6277-25.718 6.5801-29.355-1.0098-.10271-2.0241-.15421-3.0391-.1543z" color="#000" enable-background="accumulate" transform="matrix(15.733 0 0 15.764 8.5334 6.5067)"/><path stroke-width="15.85" d="m528.43 42.288c-30.677 57.224-103.62 218.88-103.62 462.9h143.93s-6.3402 306.15 34.355 462.96c206.15-55.404 349.48-242.36 349.57-455.97-.0061-242.35-173.22-442.62-424.24-469.89z" filter="url(#d)" opacity=".06" transform="matrix(1 0 0 .97513 0 12.563)"/><path fill="url(#b)" stroke-width="15.652" d="m559.9 42.288c-30.677 57.224-103.62 218.88-103.62 462.9h143.93s-6.3402 306.15 34.355 462.96c206.15-55.404 349.48-242.36 349.57-455.97-.0061-242.35-173.22-442.62-424.24-469.89z"/><g fill="none" stroke="#000" stroke-linecap="round" stroke-width="31.497"><path d="m300.37 327.25v73.692"/><path d="m762.82 327.25v73.692"/><path d="m254.99 782.4s117.2 93.015 326.55 36.917c196.65-52.691 261.7-196.83 261.7-196.83" color="#000" enable-background="accumulate"/></g></g></g></svg>