<svg xmlns="http://www.w3.org/2000/svg" width="64" height="64" viewBox="0 0 64 64"><defs><linearGradient id="a" x1="68.113" x2="68.113" y1="119.96" y2="8.781" gradientTransform="matrix(.49622 0 0 .49622 -1.7992 -2.3573)" gradientUnits="userSpaceOnUse"><stop offset="0" stop-color="#8034a9"/><stop offset="1" stop-color="#d26ef7"/></linearGradient><filter id="c" width="1.072" height="1.072" x="-.036" y="-.036" color-interpolation-filters="sRGB"><feGaussianBlur stdDeviation="1.814"/></filter><filter id="b" width="1.13" height="1.111" x="-.065" y="-.056" color-interpolation-filters="sRGB"><feGaussianBlur stdDeviation=".975"/></filter></defs><filter id="i" width="1.14" height="1.109" x="-.07" y="-.054" color-interpolation-filters="sRGB"><feGaussianBlur stdDeviation="1.976"/></filter><path stroke-width="2.015" d="m68.113-63.752c-33.39-297e-6-60.457 27.067-60.457 60.457-296e-6 33.39 27.067 60.457 60.457 60.457 33.39 3e-4 60.457-27.067 60.457-60.457 3e-4-33.39-27.067-60.457-60.457-60.457z" filter="url(#c)" opacity=".25" transform="matrix(.49622 0 0 .49622 -1.7992 33.635)" style="paint-order:fill markers stroke"/><path fill="url(#a)" stroke-width="1" d="m32 2c-16.569-1474e-7-30 13.431-30 30-1469e-7 16.569 13.431 30 30 30 16.569 149e-6 30-13.431 30-30 149e-6-16.569-13.431-30-30-30z" style="paint-order:fill markers stroke"/><path stroke-width=".933" d="m103.77 18.547c-.85213-.0398-3.2532.2448-7.0059 2.8555-2.0994-.63304-4.4958-.86737-6.9941-.86133-2.2854.0055-4.6554.19277-6.959.86133-3.7539-2.6105-5.6724-2.8937-6.5254-2.8535-.28439.0134-.42188.05664-.42188.05664-1.4271 3.7021-.5242 6.4409-.25391 7.1211-1.6765 1.8792-2.6602 4.2789-2.6602 7.2148.0 10.307 6.6786 12.616 12.498 13.295-.74814.67208-1.2189 2.0617-1.457 3.7988-1.4931.68858-5.4982 2.3738-7.8359-1.7363.0.0-1.383-2.5836-4.0137-2.7734.0.0-2.5574-.03303-.17773 1.6348.0.0 1.7179.82775 2.9102 3.9355.0.0 1.7706 4.7304 9.0605 3.1055.0073 1.2621.01333 3.6146.01953 5.8906 1.621.28979 3.2893.44922 4.9961.44922 2.7819.0 5.4633-.40752 7.9961-1.1562.0075-2.775.01563-6.0522.01563-8.1875.0-2.5083-1.037-4.1499-1.9766-4.9805 5.837-.66546 11.965-2.9417 11.965-13.275.0-2.9359-.81648-5.3377-2.4961-7.2168.26869-.68034 1.1705-3.417-.25977-7.1191.0.0-.13782-.04533-.42187-.05859z" filter="url(#b)" opacity=".15" transform="matrix(1.0715 0 0 1.0715 -63.305 -2.8678)"/><path fill="#fff" d="m47.88 17.005c-.91302-.04264-3.4856.2623-7.5065 3.0595-2.2494-.67828-4.8171-.92935-7.4939-.92288-2.4488.0059-4.9881.20655-7.4563.92288-4.0221-2.7971-6.0778-3.1005-6.9917-3.0574-.30471.01436-.45202.06069-.45202.06069-1.5291 3.9666-.56166 6.9012-.27205 7.63-1.7963 2.0134-2.8502 4.5847-2.8502 7.7304.0 11.044 7.1559 13.518 13.391 14.245-.8016.72011-1.306 2.209-1.5612 4.0703-1.5997.73779-5.8911 2.5434-8.3959-1.8604.0.0-1.4819-2.7683-4.3005-2.9716.0.0-2.7401-.03539-.19044 1.7516.0.0 1.8406.8869 3.1181 4.2168.0.0 1.8971 5.0685 9.708 3.3274.0078 1.3522.01428 3.8729.02093 6.3116 1.7368.3105 3.5243.48132 5.3531.48132 2.9807.0 5.8537-.43664 8.5675-1.2389.008-2.9733.01675-6.4846.01675-8.7726.0-2.6876-1.1111-4.4464-2.1178-5.3364 6.2541-.71301 12.82-3.1519 12.82-14.224.0-3.1457-.87482-5.7191-2.6745-7.7325.28789-.72896 1.2542-3.6612-.27833-7.6279.0.0-.14767-.04857-.45202-.06278z"/></svg>