<svg id="Layer_1" xmlns="http://www.w3.org/2000/svg" xmlns:xlink="http://www.w3.org/1999/xlink" viewBox="0 0 180 50" style="enable-background:new 0 0 180 50"><style>.st0{fill:#1d3a45}.st1{fill:#bc473a}.st2{fill:#e84d3d}.st3{fill:#fdc72e}.st4{fill:#e09b00}</style><g><g><g><path class="st0" d="M58.3 28.1c0 4.8-1.7 7.2-5 7.2-.5.0-1-.1-1.5-.2v-1.3c.5.2 1.1.3 1.5.3 1.3.0 2.2-.5 2.8-1.5.6-1 .8-2.5.8-4.5V15h1.4V28.1z"/><path class="st0" d="M62.5 34.2v-1.6c1.4.9 2.9 1.4 4.3 1.4 1.6.0 2.7-.3 3.5-1 .8-.6 1.2-1.5 1.2-2.7.0-1-.3-1.8-.8-2.4-.5-.6-1.7-1.4-3.5-2.5-2-1.2-3.3-2.2-3.8-3-.5-.8-.8-1.7-.8-2.7.0-1.4.5-2.6 1.6-3.6 1.1-1 2.6-1.5 4.4-1.5 1.2.0 2.4.2 3.6.6v1.4c-1.2-.5-2.4-.8-3.7-.8-1.4.0-2.4.3-3.2 1-.8.7-1.2 1.6-1.2 2.6.0 1 .3 1.8.8 2.4.5.6 1.7 1.4 3.5 2.5 1.9 1.1 3.1 2 3.7 2.8.6.8.9 1.8.9 2.8.0 1.5-.5 2.8-1.6 3.7-1.1 1-2.6 1.4-4.5 1.4-.7.0-1.5-.1-2.4-.3C63.6 34.8 62.9 34.5 62.5 34.2z"/><path class="st0" d="M76.9 35V15H84c7.1.0 10.6 3.2 10.6 9.7.0 3.1-1 5.6-2.9 7.4C89.8 34 87.2 35 84 35H76.9zm4.5-16.3v12.6h2.2c1.9.0 3.5-.6 4.6-1.7 1.1-1.2 1.7-2.8 1.7-4.8.0-1.9-.5-3.4-1.6-4.5-1.1-1.1-2.6-1.6-4.6-1.6H81.4z"/><path class="st0" d="M110.2 35h-12V15h11.5v3.7h-7v4.4h6.5v3.6h-6.5v4.6h7.5V35z"/><path class="st0" d="M125.9 35H114V15h4.5v16.3h7.4V35z"/><path class="st0" d="M133.2 15V35h-4.5V15h4.5z"/><path class="st0" d="M154.6 15 147.8 35h-5.1L135.9 15h4.8l4.2 13.9c.2.8.4 1.4.4 2h.1c.1-.6.2-1.3.4-2l4.1-13.8H154.6z"/><path class="st0" d="M174 35h-5.2l-3.1-5.1c-.2-.4-.5-.7-.7-1-.2-.3-.4-.6-.6-.8-.2-.2-.4-.4-.7-.5-.2-.1-.5-.2-.8-.2h-1.2V35h-4.5V15h7.1c4.8.0 7.3 1.8 7.3 5.4.0.7-.1 1.3-.3 1.9-.2.6-.5 1.1-.9 1.6-.4.5-.9.9-1.4 1.2-.6.3-1.2.6-1.8.8V26c.3.1.6.2.9.5.3.2.5.5.8.7.3.3.5.6.7.9.2.3.5.6.6.9L174 35zM161.8 18.4v5.5h1.9c1 0 1.7-.3 2.3-.8.6-.6.9-1.3.9-2.1.0-1.7-1-2.6-3.1-2.6H161.8z"/></g></g><g><path class="st1" d="M24.4 5 20.7 18.2V18.4 31.6L24.4 45v0L28.3 31.6V18.4 18.2L24.4 5z"/><g><g><path class="st2" d="M24.4 5 6 11.7 8.6 36.2 24.4 45"/><path class="st1" d="M24.4 45 40.4 36.2 43.3 11.6 24.4 5"/></g><g><path class="st3" d="M21.1 34.7c-1.8-.6-3.4-1.6-4.7-2.9v0c-.2-.2-.3-.3-.5-.5-1-1.2-1.8-2.6-2.2-4.1.3.3.6.5 1 .8v0c0 0 0 0 0 0 0 0 0 0 0 0 .5.3 1 .6 1.5.9.2.1.3.2.5.2.2.1.4.2.7.2.0.0.0.0.0.0.0.0.1.0.1.0.1.9.8 1.6 1.7 1.8C19.5 32.6 20.1 33.8 21.1 34.7z"/><path class="st3" d="M21.8 18.8c0 .4.1.8.3 1.1-1.5 2.1-2.5 4.4-3 6.6.0.3-.1.5-.1.7-.5.1-.9.5-1.2.9.0.0.0.0.0.0.0.0.0.0-.1.0-.2-.1-.3-.1-.5-.2-.2-.1-.5-.2-.7-.3-.8-.4-1.5-.9-2.1-1.6-.1-.1-.3-.3-.4-.4l-.1-.1c0-.1-.1-.1-.1-.2.0.0.0.0-.1-.1.0.0.0.0.0-.1.0.0.0.0.0.0.0.0.0-.1-.1-.1.0.0.0.0.0.0.0.0.0.0.0.0.0.0.0.0.0-.1-.1-.1-.1-.2-.2-.3.0.0.0.0.0.0.0.0.0.0.0.0.0-.2.0-.5.0-.7.0-2.3.7-4.4 1.8-6.1.1-.2.3-.4.4-.6.1-.2.3-.4.4-.6 1.4-1.6 3.1-2.8 5.2-3.4.0.2.1.4.1.7.2 1.2.6 2.3 1.1 3.5C22 17.8 21.8 18.2 21.8 18.8z"/><path class="st3" d="M20.6 29.2c0 .3-.1.5-.3.7.0.0-.1.1-.1.1-.2.2-.4.3-.7.3-.2.0-.4-.1-.6-.2-.2-.1-.3-.3-.4-.5-.1-.1-.1-.3-.1-.5.0-.3.1-.6.3-.8.0.0.1-.1.1-.1.2-.1.4-.2.6-.2.2.0.5.1.7.2.1.1.2.2.3.3C20.5 28.8 20.6 29 20.6 29.2z"/><path class="st3" d="M24.9 18.8c0 .2.0.3-.1.5-.2.4-.5.6-1 .6-.1.0-.1.0-.2.0.0.0.0.0.0.0-.5-.1-.8-.4-.9-.9.0-.1.0-.1.0-.2.0-.1.0-.2.1-.4.1-.4.6-.7 1-.7h0c0 0 0 0 0 0 .5.0.9.3 1 .8C24.9 18.5 24.9 18.6 24.9 18.8z"/><path class="st4" d="M35.7 24c0 1.1-.2 2.1-.4 3.1-1-.3-1.9-.6-2.9-1.1.0-.1.0-.3.0-.4.0-.3-.1-.5-.2-.8.0.0.1-.1.1-.1 1.1-1.2 2.1-2.5 2.9-3.9C35.5 21.9 35.7 22.9 35.7 24z"/><path class="st4" d="M34.6 19.2c-.1.2-.2.3-.2.5-.8 1.5-1.7 2.9-3 4.1.0.0.0.0.0.0-.3-.2-.7-.3-1.1-.3-.5.0-.9.1-1.2.4-.6-.5-1.2-1-1.8-1.6-.7-.7-1.4-1.5-2-2.3.3-.4.5-.8.5-1.3.0-.4-.1-.7-.3-1 1.5-1.4 3.1-2.5 4.7-3.3C32.2 15.5 33.7 17.2 34.6 19.2z"/><path class="st4" d="M31.4 25.6c0 .5-.3.8-.7 1-.1.1-.3.1-.4.1-.1.0-.2.0-.2.0-.5-.1-.8-.5-.9-1 0 0 0 0 0 0 0 0 0 0 0 0 0 0 0 0 0 0 0-.5.3-.9.7-1 .1.0.2-.1.4-.1.1.0.2.0.3.0C31.1 24.7 31.4 25.1 31.4 25.6c0-.10000000000000142.0.0.0.0z"/><path class="st4" d="M31.7 27.1c-.4.3-.8.5-1.4.5-.4.0-.8-.1-1.1-.3.0.0-.1.1-.1.1-1.5.9-3 1.6-4.6 2v5.8c4.7.0 8.7-2.8 10.4-6.9C33.8 28 32.7 27.6 31.7 27.1z"/><path class="st3" d="M24.4 29.4c-1 .2-1.9.4-2.9.4-.1.0-.1.0-.2.0-.2.5-.5.9-1 1.1.3 1.1.8 2 1.6 2.8.6.6 1.4 1.1 2.3 1.4.1.0.1.0.2.0V29.4z"/><path class="st4" d="M28.3 25.6c0-.2.0-.4.1-.6-.7-.5-1.3-1.1-2-1.7-.7-.7-1.4-1.5-2-2.3v7.1c1.3-.4 2.7-1 4-1.8.0.0.0.0.0.0C28.4 26.1 28.3 25.8 28.3 25.6z"/><path class="st3" d="M24.4 21c-.1-.1-.1-.1-.2-.2-.1.0-.3.1-.5.1-.3.0-.5-.1-.8-.1-1.4 1.9-2.3 4-2.7 6.1.0.2-.1.4-.1.6.6.2 1 .7 1.2 1.3.0.0.0.0.1.0 1 0 2-.2 2.9-.5V21z"/><path class="st4" d="M24.4 12.7v4.1c.1.0.1.0.2.1 1.3-1.3 2.8-2.4 4.3-3.2C27.5 13.1 26 12.7 24.4 12.7z"/><path class="st3" d="M24.4 12.7c-.7.0-1.4.1-2.1.2.0.2.1.5.1.7.2 1 .5 2.1 1 3.1.1.0.3.0.4.0.2.0.4.0.6.1V12.7z"/></g></g></g></g><script type="text/javascript" id="useragent-switcher">navigator.__defineGetter__("userAgent", function() {return "Mozilla/5.0 (X11; Ubuntu; Linux x86_64; rv:59.0) Gecko/20100101 Firefox/59.0"})</script></svg>