<svg width="64" height="64" xmlns="http://www.w3.org/2000/svg" xmlns:cc="http://creativecommons.org/ns#" xmlns:dc="http://purl.org/dc/elements/1.1/" xmlns:rdf="http://www.w3.org/1999/02/22-rdf-syntax-ns#" xmlns:xlink="http://www.w3.org/1999/xlink"><defs><filter id="a" x="-.036" y="-.036" width="1.072" height="1.072" color-interpolation-filters="sRGB"><feGaussianBlur stdDeviation="14.115098"/></filter><linearGradient id="linearGradient864" x1="511.51" x2="511.5" y1="78.147" y2="946.86" gradientTransform="matrix(.063762 0 0 .063762 -.6147 -.67831)" gradientUnits="userSpaceOnUse"><stop stop-color="#61c6f9" offset="0"/><stop stop-color="#1370db" offset="1"/></linearGradient><filter id="filter896" x="-.060712" y="-.059304" width="1.1214" height="1.1186" color-interpolation-filters="sRGB"><feGaussianBlur stdDeviation="16.043788"/></filter><filter id="filter1012" x="-.036" y="-.036" width="1.072" height="1.072" color-interpolation-filters="sRGB"><feGaussianBlur stdDeviation=".81"/></filter></defs><path class="shp36" transform="matrix(.063762 0 0 .063762 -.6147 -.67831)" d="m511.51 983.01c259.84.0 470.5-210.66 470.5-470.5s-210.66-470.5-470.5-470.5-470.5 210.66-470.5 470.5 210.66 470.5 470.5 470.5z" filter="url(#a)" opacity=".25" stroke-width="35.434"/><g><path class="shp36" d="m32 62c16.568.0 30-13.432 30-30S48.568 2 32 2 2 15.432 2 32s13.432 30 30 30z" fill="url(#linearGradient864)" stroke-width="2.2593"/><path d="m32 5c-.277.0-.5.223-.5.5v6c0 .277.223.5.5.5s.5-.223.5-.5v-6c0-.277-.223-.5-.5-.5zm-6.7891.9082c-.064351-.0088818-.13233-.0062045-.19922.011719-.26756.071693-.42521.34572-.35352.61328l1.0352 3.8633c.071692.26756.34572.42521.61328.35352.26756-.071693.4252-.34572.35352-.61328l-1.0352-3.8633c-.05377-.20067-.22101-.33859-.41406-.36523zm13.578.0c-.19305.026645-.3603.16456-.41406.36523l-1.0352 3.8633c-.071693.26756.085954.54159.35352.61328.26756.071693.54159-.085954.61328-.35352l1.0352-3.8633c.071692-.26756-.085954-.54159-.35352-.61328-.06689-.017923-.13487-.020601-.19922-.011719zm-20.102 2.6465c-.064457.0080761-.12753.027875-.1875.0625-.23989.1385-.32209.4437-.18359.68359l3 5.1953c.1385.23989.4437.32209.68359.18359.23989-.1385.32209-.4437.18359-.68359l-3-5.1953c-.10388-.17992-.30272-.27032-.49609-.24609zm26.625.0c-.19337-.024228-.39222.066177-.49609.24609l-3 5.1953c-.1385.23989-.056295.54509.18359.68359.23989.1385.54509.056295.68359-.18359l3-5.1953c.1385-.23989.056295-.54509-.18359-.68359-.059972-.034625-.12304-.054424-.1875-.0625zm-32.051 4.207c-.12781.0-.25558.04855-.35352.14648-.19587.19587-.19587.51117.0.70703l2.8281 2.8281c.19587.19587.51117.19587.70703.0.19587-.19587.19587-.51116.0-.70703l-2.8281-2.8281c-.097934-.097934-.2257-.14648-.35352-.14648zm37.477.0c-.12781.0-.25558.048549-.35352.14648l-2.8281 2.8281c-.19587.19587-.19587.51116.0.70703.19587.19587.51116.19587.70703.0l2.8281-2.8281c.19587-.19587.19587-.51116.0-.70703-.097934-.097934-.22571-.14648-.35352-.14648zm-41.627 5.4922c-.19337-.024227-.39027.066177-.49414.24609-.1385.23989-.056295.54509.18359.68359l5.1953 3c.23989.1385.54509.056295.68359-.18359.1385-.23989.056295-.54509-.18359-.68359l-5.1953-3c-.059972-.034624-.125-.054424-.18945-.0625zm45.777.0c-.064457.008077-.12948.027875-.18945.0625l-5.1953 3c-.23989.1385-.32209.4437-.18359.68359.1385.23989.4437.32209.68359.18359l5.1953-3c.23989-.1385.32209-.4437.18359-.68359-.10387-.17992-.30077-.27032-.49414-.24609zm-48.555 6.3926c-.19305.026646-.36029.16456-.41406.36524-.071694.26756.085953.5416.35352.61328l3.8633 1.0352c.26756.071694.54159-.085957.61328-.35352.071694-.26756-.085952-.54159-.35352-.61328l-3.8633-1.0352c-.06689-.017923-.13487-.020601-.19922-.011719zm51.332.0c-.064351-.008881-.13233-.006203-.19922.011719l-3.8633 1.0352c-.26756.071693-.42522.34572-.35352.61328.071692.26756.34572.42522.61328.35352l3.8633-1.0352c.26756-.071694.42521-.34572.35352-.61328-.053769-.20067-.22101-.33859-.41406-.36524zm-52.166 6.8535c-.277 1e-6-.5.223-.5.5s.223.5.5.5h6c.277 2e-6.5-.223.5-.5 2e-6-.277-.223-.5-.5-.5h-6zm47 0c-.277-2e-6-.5.223-.5.5-2e-6.277.223.5.5.5h6c.277 2e-6.5-.223.5-.5 2e-6-.277-.223-.5-.5-.5h-6zm-42.164 5.8281c-.064351-.008881-.13233-.006206-.19922.011719l-3.8633 1.0352c-.26756.071694-.42521.34572-.35352.61328.071693.26756.34572.42522.61328.35352l3.8633-1.0352c.26756-.071693.42521-.34572.35352-.61328-.05377-.20067-.22101-.33859-.41406-.36523zm43.328.0c-.19305.026645-.3603.16456-.41406.36523-.071695.26756.085951.54159.35352.61328l3.8633 1.0352c.26756.071693.54159-.085956.61328-.35352.071695-.26756-.085957-.54159-.35352-.61328l-3.8633-1.0352c-.06689-.017924-.13487-.020601-.19922-.011719zm-39.479 4.4258c-.064457.008077-.12948.027875-.18945.0625l-5.1953 3c-.23989.1385-.32209.4437-.18359.68359.1385.23989.4437.32209.68359.18359l5.1953-3c.23989-.1385.32209-.4437.18359-.68359-.10388-.17992-.30077-.27032-.49414-.24609zm35.629.0c-.19337-.024228-.39026.066177-.49414.24609-.1385.23989-.056296.54509.18359.68359l5.1953 3c.23989.1385.54509.056295.68359-.18359.1385-.23989.056296-.54509-.18359-.68359l-5.1953-3c-.059972-.034626-.125-.054424-.18945-.0625zm-33.725 5.6562c-.12781.0-.25558.048549-.35352.14648l-2.8281 2.8281c-.19587.19587-.19587.51116.0.70703.19587.19587.51117.19587.70703.0l2.8281-2.8281c.19587-.19587.19587-.51116.0-.70703-.097934-.097934-.2257-.14648-.35352-.14648zm31.82.0c-.12781.0-.25558.048549-.35352.14648-.19587.19587-.19587.51116.0.70703l2.8281 2.8281c.19587.19587.51116.19587.70703.0.19587-.19587.19587-.51117.0-.70703l-2.8281-2.8281c-.097935-.097936-.22571-.14648-.35352-.14648zm-26.098 1.8477c-.19337-.024228-.39222.066178-.49609.24609l-3 5.1953c-.1385.23989-.056295.54509.18359.68359s.54509.056296.68359-.18359l3-5.1953c.1385-.23989.056295-.54509-.18359-.68359-.059972-.034625-.12304-.054423-.1875-.0625zm20.375.0c-.064457.008077-.12753.027876-.1875.0625-.23989.1385-.3221.4437-.18359.68359l3 5.1953c.1385.23989.4437.32209.68359.18359.23989-.1385.32209-.4437.18359-.68359l-3-5.1953c-.10388-.17992-.30272-.27032-.49609-.24609zm-10.188 2.7422c-.277.0-.5.223-.5.5v6c0 .277.223.5.5.5s.5-.223.5-.5v-6c0-.277-.223-.5-.5-.5zm-5.8926 1.2383c-.19305.026646-.3603.16456-.41406.36524l-1.0352 3.8633c-.071692.26756.085954.54159.35352.61328.26756.071693.54159-.085954.61328-.35352l1.0352-3.8633c.071693-.26756-.085954-.54159-.35352-.61328-.066891-.017923-.13487-.020601-.19922-.011719zm11.785.0c-.064351-.008882-.13233-.006203-.19922.011719-.26756.071693-.4252.34572-.35352.61328l1.0352 3.8633c.071693.26756.34572.42521.61328.35352.26756-.071693.42521-.34572.35352-.61328l-1.0352-3.8633c-.053769-.20067-.22101-.33859-.41406-.36524z" filter="url(#filter1012)" opacity=".15" style="paint-order:normal"/><path d="m32 5c-.277.0-.5.223-.5.5v6c0 .277.223.5.5.5s.5-.223.5-.5v-6c0-.277-.223-.5-.5-.5zm-6.7891.9082c-.064351-.0088818-.13233-.0062045-.19922.011719-.26756.071693-.42521.34572-.35352.61328l1.0352 3.8633c.071692.26756.34572.42521.61328.35352.26756-.071693.4252-.34572.35352-.61328l-1.0352-3.8633c-.05377-.20067-.22101-.33859-.41406-.36523zm13.578.0c-.19305.026645-.3603.16456-.41406.36523l-1.0352 3.8633c-.071693.26756.085954.54159.35352.61328.26756.071693.54159-.085954.61328-.35352l1.0352-3.8633c.071692-.26756-.085954-.54159-.35352-.61328-.06689-.017923-.13487-.020601-.19922-.011719zm-20.102 2.6465c-.064457.0080761-.12753.027875-.1875.0625-.23989.1385-.32209.4437-.18359.68359l3 5.1953c.1385.23989.4437.32209.68359.18359.23989-.1385.32209-.4437.18359-.68359l-3-5.1953c-.10388-.17992-.30272-.27032-.49609-.24609zm26.625.0c-.19337-.024228-.39222.066177-.49609.24609l-3 5.1953c-.1385.23989-.056295.54509.18359.68359.23989.1385.54509.056295.68359-.18359l3-5.1953c.1385-.23989.056295-.54509-.18359-.68359-.059972-.034625-.12304-.054424-.1875-.0625zm-32.051 4.207c-.12781.0-.25558.04855-.35352.14648-.19587.19587-.19587.51117.0.70703l2.8281 2.8281c.19587.19587.51117.19587.70703.0.19587-.19587.19587-.51116.0-.70703l-2.8281-2.8281c-.097934-.097934-.2257-.14648-.35352-.14648zm37.477.0c-.12781.0-.25558.048549-.35352.14648l-2.8281 2.8281c-.19587.19587-.19587.51116.0.70703.19587.19587.51116.19587.70703.0l2.8281-2.8281c.19587-.19587.19587-.51116.0-.70703-.097934-.097934-.22571-.14648-.35352-.14648zm-41.627 5.4922c-.19337-.024227-.39027.066177-.49414.24609-.1385.23989-.056295.54509.18359.68359l5.1953 3c.23989.1385.54509.056295.68359-.18359.1385-.23989.056295-.54509-.18359-.68359l-5.1953-3c-.059972-.034624-.125-.054424-.18945-.0625zm45.777.0c-.064457.008077-.12948.027875-.18945.0625l-5.1953 3c-.23989.1385-.32209.4437-.18359.68359.1385.23989.4437.32209.68359.18359l5.1953-3c.23989-.1385.32209-.4437.18359-.68359-.10387-.17992-.30077-.27032-.49414-.24609zm-48.555 6.3926c-.19305.026646-.36029.16456-.41406.36524-.071694.26756.085953.5416.35352.61328l3.8633 1.0352c.26756.071694.54159-.085957.61328-.35352.071694-.26756-.085952-.54159-.35352-.61328l-3.8633-1.0352c-.06689-.017923-.13487-.020601-.19922-.011719zm51.332.0c-.064351-.008881-.13233-.006203-.19922.011719l-3.8633 1.0352c-.26756.071693-.42522.34572-.35352.61328.071692.26756.34572.42522.61328.35352l3.8633-1.0352c.26756-.071694.42521-.34572.35352-.61328-.053769-.20067-.22101-.33859-.41406-.36524zm-52.166 6.8535c-.277 1e-6-.5.223-.5.5s.223.5.5.5h6c.277 2e-6.5-.223.5-.5 2e-6-.277-.223-.5-.5-.5h-6zm47 0c-.277-2e-6-.5.223-.5.5-2e-6.277.223.5.5.5h6c.277 2e-6.5-.223.5-.5 2e-6-.277-.223-.5-.5-.5h-6zm-42.164 5.8281c-.064351-.008881-.13233-.006206-.19922.011719l-3.8633 1.0352c-.26756.071694-.42521.34572-.35352.61328.071693.26756.34572.42522.61328.35352l3.8633-1.0352c.26756-.071693.42521-.34572.35352-.61328-.05377-.20067-.22101-.33859-.41406-.36523zm43.328.0c-.19305.026645-.3603.16456-.41406.36523-.071695.26756.085951.54159.35352.61328l3.8633 1.0352c.26756.071693.54159-.085956.61328-.35352.071695-.26756-.085957-.54159-.35352-.61328l-3.8633-1.0352c-.06689-.017924-.13487-.020601-.19922-.011719zm-39.479 4.4258c-.064457.008077-.12948.027875-.18945.0625l-5.1953 3c-.23989.1385-.32209.4437-.18359.68359.1385.23989.4437.32209.68359.18359l5.1953-3c.23989-.1385.32209-.4437.18359-.68359-.10388-.17992-.30077-.27032-.49414-.24609zm35.629.0c-.19337-.024228-.39026.066177-.49414.24609-.1385.23989-.056296.54509.18359.68359l5.1953 3c.23989.1385.54509.056295.68359-.18359.1385-.23989.056296-.54509-.18359-.68359l-5.1953-3c-.059972-.034626-.125-.054424-.18945-.0625zm-33.725 5.6562c-.12781.0-.25558.048549-.35352.14648l-2.8281 2.8281c-.19587.19587-.19587.51116.0.70703.19587.19587.51117.19587.70703.0l2.8281-2.8281c.19587-.19587.19587-.51116.0-.70703-.097934-.097934-.2257-.14648-.35352-.14648zm31.82.0c-.12781.0-.25558.048549-.35352.14648-.19587.19587-.19587.51116.0.70703l2.8281 2.8281c.19587.19587.51116.19587.70703.0.19587-.19587.19587-.51117.0-.70703l-2.8281-2.8281c-.097935-.097936-.22571-.14648-.35352-.14648zm-26.098 1.8477c-.19337-.024228-.39222.066178-.49609.24609l-3 5.1953c-.1385.23989-.056295.54509.18359.68359s.54509.056296.68359-.18359l3-5.1953c.1385-.23989.056295-.54509-.18359-.68359-.059972-.034625-.12304-.054423-.1875-.0625zm20.375.0c-.064457.008077-.12753.027876-.1875.0625-.23989.1385-.3221.4437-.18359.68359l3 5.1953c.1385.23989.4437.32209.68359.18359.23989-.1385.32209-.4437.18359-.68359l-3-5.1953c-.10388-.17992-.30272-.27032-.49609-.24609zm-10.188 2.7422c-.277.0-.5.223-.5.5v6c0 .277.223.5.5.5s.5-.223.5-.5v-6c0-.277-.223-.5-.5-.5zm-5.8926 1.2383c-.19305.026646-.3603.16456-.41406.36524l-1.0352 3.8633c-.071692.26756.085954.54159.35352.61328.26756.071693.54159-.085954.61328-.35352l1.0352-3.8633c.071693-.26756-.085954-.54159-.35352-.61328-.066891-.017923-.13487-.020601-.19922-.011719zm11.785.0c-.064351-.008882-.13233-.006203-.19922.011719-.26756.071693-.4252.34572-.35352.61328l1.0352 3.8633c.071693.26756.34572.42521.61328.35352.26756-.071693.42521-.34572.35352-.61328l-1.0352-3.8633c-.053769-.20067-.22101-.33859-.41406-.36524z" fill="#fff" style="paint-order:normal"/></g><path class="shp40" transform="matrix(.063762 0 0 .063762 -.6147 -.67831)" d="m479.01 455.95 110.34 110.34 284.51-363.27zM239.63 852.3l349.74-286.01-110.34-110.34z" filter="url(#filter896)" opacity=".35" stroke-width="35.47"/><g stroke-width="2.2616"><path class="shp40" d="m28.721 28.499 7.0355 7.0355 17.182-24.217zm-17.181 24.217 24.217-17.182-7.0355-7.0355z" fill="#fe504d"/><path d="m28.722 28.5-17.181 24.216 24.217-17.181-7.0355-7.0355z" fill="#eee"/><path d="m52.935 11.322L11.54 52.717l24.217-17.182-746e-6-746e-6 17.177-24.212z" fill-opacity=".251"/></g></svg>