<svg baseProfile="tiny" height="24" id="Layer_1" version="1.2" viewBox="0 0 24 24" width="24" xmlns="http://www.w3.org/2000/svg" xmlns:xlink="http://www.w3.org/1999/xlink"><g><g><path d="M14.435 12.973c.269.0.492.133.686.396.192.265.294.588.294.975.0.385-.102.711-.294.973-.193.265-.417.396-.686.396-.278.0-.522-.131-.715-.396-.192-.262-.294-.588-.294-.973.0-.387.102-.71.294-.975C13.912 13.105 14.156 12.973 14.435 12.973M17.875 9.414C18.621 10.225 19 11.209 19 12.367c0 .748-.086 1.423-.259 2.023-.175.597-.394 1.084-.654 1.459-.264.376-.588.705-.974.989-.386.286-.741.492-1.065.623-.325.132-.695.233-1.111.306-.417.071-.726.111-.943.123-.213.009-.438.014-.685.014-.055.0-.243.004-.547.015-.301.013-.56.016-.762.016s-.461-.003-.762-.016c-.304-.011-.492-.015-.547-.015-.246.0-.472-.005-.685-.014-.218-.012-.526-.052-.943-.123-.423-.072-.786-.174-1.111-.306-.324-.131-.68-.337-1.064-.623-.387-.284-.711-.613-.975-.989-.261-.375-.479-.862-.654-1.459C5.086 13.79 5 13.115 5 12.367c0-1.158.379-2.143 1.125-2.953C6.043 9.373 6.04 8.967 6.117 8.197 6.18 7.426 6.344 6.715 6.612 6.065c.934.099 2.09.629 3.471 1.581C10.549 7.527 11.184 7.463 12 7.463c.852.0 1.491.064 1.918.184.629-.425 1.23-.771 1.805-1.034.584-.261 1.005-.416 1.269-.457l.396-.09c.27.649.434 1.36.496 2.132C17.96 8.967 17.957 9.373 17.875 9.414M12.03 17.234c1.688.0 2.954-.202 3.821-.607.855-.404 1.292-1.238 1.292-2.496.0-.73-.273-1.34-.822-1.828-.278-.263-.613-.425-.989-.486-.375-.061-.949-.061-1.72.0-.769.062-1.298.09-1.582.09-.385.0-.8-.018-1.319-.059-.52-.04-.928-.065-1.223-.078-.294-.009-.609.027-.958.108-.345.082-.629.224-.853.425-.521.469-.79 1.077-.79 1.828.0 1.258.426 2.092 1.28 2.496.85.405 2.113.607 3.802.607H12.03M9.596 12.973c.268.0.492.133.685.396.192.265.294.588.294.975.0.385-.102.711-.294.973-.192.265-.417.396-.685.396-.279.0-.522-.131-.716-.396-.192-.262-.294-.588-.294-.973.0-.387.102-.71.294-.975C9.073 13.105 9.316 12.973 9.596 12.973"/></g></g></svg>