<svg id="图层_1" xmlns="http://www.w3.org/2000/svg" xmlns:xlink="http://www.w3.org/1999/xlink" viewBox="-31 340.2 531.2 161.7" style="enable-background:new -31 340.2 531.2 161.7"><style>.st0{fill:#64ab23}.st1{fill:#a8a8a8}</style><g><path class="st0" d="M37.6 340.2c-37.5-.6-68.6 27-68.6 59.5.0 18.8 8.8 35 25.9 47 0 0-6.3 20.7-6.2 21.1.1.4 1.5 1.2 1.9 1s22.6-13.5 22.6-13.5c17 5.8 26.9 3.9 27.4 3.9-1.7-5-2.8-12.7-1.5-20 6.6-38.1 45.6-50 67-47.9C100.2 363.6 74.6 340.7 37.6 340.2zM11.5 389.3c-4.9.0-8.9-4-8.9-8.9s4-8.9 8.9-8.9 8.9 4 8.9 8.9S16.4 389.3 11.5 389.3zM65.4 389.3c-4.9.0-8.9-4-8.9-8.9s4-8.9 8.9-8.9 8.9 4 8.9 8.9S70.4 389.3 65.4 389.3z"/><path class="st1" d="M161 444.9c0-27.8-26.9-49.2-58.1-49.2-33.1.0-59.4 21.8-59.4 49.6.0 27.9 25.1 51 59.5 51.2 6.9.0 17.2-1.7 24.2-4.6.0.0 16.6 10.1 17.5 10 .9-.1 1.4-.8 1.4-1.4.0-.6-5.3-16.4-5.3-16.4C155 472.9 161 460.6 161 444.9zM81.1 434.6c-4.4.0-7.9-3.5-7.9-7.9s3.5-7.9 7.9-7.9 7.9 3.5 7.9 7.9S85.4 434.6 81.1 434.6zM123.2 434.6c-4.4.0-7.9-3.5-7.9-7.9s3.5-7.9 7.9-7.9c4.4.0 7.9 3.5 7.9 7.9S127.6 434.6 123.2 434.6z"/></g><g><g><path class="st0" d="M246.6 406.7 234.7 455.7l-10-49H209.5l-10 49L187.6 406.7H172.8L192.7 476.2h13.5L217 423 227.8 476.2H241.4L261.3 406.7z"/><path class="st0" d="M297.3 430c-4.3-4.7-10.3-7.1-18.2-7.1-7.4.0-13.2 2.5-17.5 7.3-4.3 4.9-6.4 11.5-6.4 19.9.0 8.6 2.2 15.3 6.5 20.3s10.2 7.5 17.6 7.5c6 0 11.1-1.5 15.3-4.6 4.2-3.1 7-7.3 8.4-12.7h-13.6c-.9 1.9-2.1 3.4-3.6 4.1-1.5.9-3.4 1.4-5.8 1.4-3.4.0-5.9-1.1-7.7-3.1-1.7-2-2.7-5.1-2.9-9.1h34.2c0-.4.1-.9.1-1.4s0-1.2.0-2.2C303.7 441.5 301.6 434.7 297.3 430zM269.4 445.1c.3-3.4 1.3-6 3-7.9 1.7-1.8 4-2.7 7-2.7 3.2.0 5.7.9 7.4 2.7 1.8 1.8 2.7 4.4 2.8 7.9H269.4z"/></g><g><path class="st1" d="M371.7 452.4v0c0-.0999999999999659.0.0.0.0v0z"/><path class="st1" d="M352.4 461.9c-2.8 2.2-6.4 3.3-10.7 3.3-6 0-10.6-2.1-13.9-6.2-3.3-4.1-4.9-10-4.9-17.5.0-7.8 1.6-13.7 4.9-17.8 3.2-4.1 8-6.1 14.3-6.1 4.5.0 8 1 10.6 3.1 2.6 2.1 4.2 5.1 4.8 9h14.1c-.5-7.9-3.4-14-8.5-18.3-5.1-4.3-12.1-6.5-21-6.5-10.9.0-19.3 3.1-25.1 9.4s-8.7 15.4-8.7 27.2c0 11.6 2.9 20.6 8.6 27 5.7 6.4 13.7 9.6 24 9.6 8.9.0 16.2-2.3 21.7-7 5.5-4.6 8.6-10.8 9.1-18.7h-13.9C357 456.5 355.2 459.7 352.4 461.9z"/><path class="st1" d="M417.5 429.5c-1.5-1.9-3.5-3.4-5.9-4.4-2.5-1.1-5.2-1.6-8.2-1.6-3.2.0-6.1.6-8.6 1.8-2.5 1.2-4.7 3-6.6 5.3v-23.9h-13.6V476h13.6v-30.4c0-3.3.9-6 2.8-7.9 1.9-1.9 4.5-2.9 7.7-2.9 3 0 5.2.7 6.3 2.4 1.1 1.7 1.7 5.7 1.7 12V476h13.6v-33.2-.9c0-3.7-.2-6.3-.6-8C419.3 432.3 418.5 430.8 417.5 429.5z"/><path class="st1" d="M469.7 471.6c-.5-1.1-.7-2.7-.7-4.8v-29.1c0-4.7-1.9-8.3-5.7-10.8s-9.3-3.7-16.5-3.7c-6.6.0-11.7 1.5-15.4 4.5s-5.6 7.1-5.6 12.4v.9h12.8v-.8c0-2 .7-3.6 2.2-4.7 1.5-1.1 3.6-1.7 6.4-1.7 3.1.0 5.2.4 6.5 1.3 1.3.9 1.9 2.4 1.9 4.5.0 2.6-2.9 4.2-8.7 5-2.3.3-4.2.6-5.6.8-6.2.9-10.6 2.7-13.3 5.2-2.7 2.6-4 6.3-4 11.1.0 5.2 1.3 9.3 4 12.1 2.7 2.8 6.5 4.2 11.5 4.2 3.7.0 7-.7 9.8-2.1 2.8-1.4 5.1-3.4 6.8-6.1.0 1.2.2 2.4.4 3.6.3 1 .6 2 1.1 2.9h14.3V474C470.9 473.4 470.1 472.7 469.7 471.6zM455.9 455.8c0 3.7-1.1 6.5-3.2 8.6-2.1 2.1-5 3.1-8.7 3.1-2.1.0-3.8-.6-5-1.7-1.2-1.1-1.8-2.6-1.8-4.5.0-1.8.4-3.3 1.4-4.3s2.7-1.9 5.1-2.6c.1.0 1.6-.4 4.5-1 2.9-.6 5.5-1.5 7.7-2.5V455.8z"/><path class="st1" d="M500.2 434.6V425h-7.9v-14h-13.6v14h-6.8v9.6h6.8v27.7c0 5.8 1 9.6 2.9 11.6 2 1.9 5.5 2.9 10.8 2.9.4.0 1.6.0 3.3-.1 1.7-.1 3.2-.2 4.5-.2h0v-10.2h-3.3c-1.9.0-3.1-.2-3.7-.6-.6-.5-.9-1.3-.9-2.7v-28.4H500.2z"/></g></g></svg>