<svg xmlns="http://www.w3.org/2000/svg" width="75" height="75" class="lds-spinner" preserveAspectRatio="xMidYMid" viewBox="0 0 100 100" style="background:#fefac7"><g transform="rotate(0 50 50)"><rect width="6" height="14" x="47" y="18" fill="orange" rx="2" ry="2"><animate attributeName="opacity" begin="-.9375s" dur="1s" repeatCount="indefinite" times="0;1" values="1;0"/></rect></g><g transform="rotate(22.5 50 50)"><rect width="6" height="14" x="47" y="18" fill="orange" rx="2" ry="2"><animate attributeName="opacity" begin="-.875s" dur="1s" repeatCount="indefinite" times="0;1" values="1;0"/></rect></g><g transform="rotate(45 50 50)"><rect width="6" height="14" x="47" y="18" fill="orange" rx="2" ry="2"><animate attributeName="opacity" begin="-.8125s" dur="1s" repeatCount="indefinite" times="0;1" values="1;0"/></rect></g><g transform="rotate(67.5 50 50)"><rect width="6" height="14" x="47" y="18" fill="orange" rx="2" ry="2"><animate attributeName="opacity" begin="-.75s" dur="1s" repeatCount="indefinite" times="0;1" values="1;0"/></rect></g><g transform="rotate(90 50 50)"><rect width="6" height="14" x="47" y="18" fill="orange" rx="2" ry="2"><animate attributeName="opacity" begin="-.6875s" dur="1s" repeatCount="indefinite" times="0;1" values="1;0"/></rect></g><g transform="rotate(112.5 50 50)"><rect width="6" height="14" x="47" y="18" fill="orange" rx="2" ry="2"><animate attributeName="opacity" begin="-.625s" dur="1s" repeatCount="indefinite" times="0;1" values="1;0"/></rect></g><g transform="rotate(135 50 50)"><rect width="6" height="14" x="47" y="18" fill="orange" rx="2" ry="2"><animate attributeName="opacity" begin="-.5625s" dur="1s" repeatCount="indefinite" times="0;1" values="1;0"/></rect></g><g transform="rotate(157.5 50 50)"><rect width="6" height="14" x="47" y="18" fill="orange" rx="2" ry="2"><animate attributeName="opacity" begin="-.5s" dur="1s" repeatCount="indefinite" times="0;1" values="1;0"/></rect></g><g transform="rotate(180 50 50)"><rect width="6" height="14" x="47" y="18" fill="orange" rx="2" ry="2"><animate attributeName="opacity" begin="-.4375s" dur="1s" repeatCount="indefinite" times="0;1" values="1;0"/></rect></g><g transform="rotate(202.5 50 50)"><rect width="6" height="14" x="47" y="18" fill="orange" rx="2" ry="2"><animate attributeName="opacity" begin="-.375s" dur="1s" repeatCount="indefinite" times="0;1" values="1;0"/></rect></g><g transform="rotate(225 50 50)"><rect width="6" height="14" x="47" y="18" fill="orange" rx="2" ry="2"><animate attributeName="opacity" begin="-.3125s" dur="1s" repeatCount="indefinite" times="0;1" values="1;0"/></rect></g><g transform="rotate(247.5 50 50)"><rect width="6" height="14" x="47" y="18" fill="orange" rx="2" ry="2"><animate attributeName="opacity" begin="-.25s" dur="1s" repeatCount="indefinite" times="0;1" values="1;0"/></rect></g><g transform="rotate(270 50 50)"><rect width="6" height="14" x="47" y="18" fill="orange" rx="2" ry="2"><animate attributeName="opacity" begin="-.1875s" dur="1s" repeatCount="indefinite" times="0;1" values="1;0"/></rect></g><g transform="rotate(292.5 50 50)"><rect width="6" height="14" x="47" y="18" fill="orange" rx="2" ry="2"><animate attributeName="opacity" begin="-.125s" dur="1s" repeatCount="indefinite" times="0;1" values="1;0"/></rect></g><g transform="rotate(315 50 50)"><rect width="6" height="14" x="47" y="18" fill="orange" rx="2" ry="2"><animate attributeName="opacity" begin="-.0625s" dur="1s" repeatCount="indefinite" times="0;1" values="1;0"/></rect></g><g transform="rotate(337.5 50 50)"><rect width="6" height="14" x="47" y="18" fill="orange" rx="2" ry="2"><animate attributeName="opacity" begin="0" dur="1s" repeatCount="indefinite" times="0;1" values="1;0"/></rect></g></svg>