<svg width="80" height="80" xmlns="http://www.w3.org/2000/svg" viewBox="-200 -200 500 500" preserveAspectRatio="xMidYMid" class="lds-stripe" style="background:#fefac7 repeat"><defs><pattern id="blah" patternUnits="userSpaceOnUse" x="0" y="0" width="100" height="100"><g transform="translate(7.8 0)"><g transform="rotate(20 50 50) scale(1.2)"><path d="M-20-10h10v120H-20z" ng-attr-fill="{{config.c1}}" fill="orange"/><path d="M-10-10H0v120H-10z" ng-attr-fill="{{config.c2}}" fill="#ffffcb"/><path d="M0-10h10v120H0z" ng-attr-fill="{{config.c1}}" fill="orange"/><path d="M10-10h10v120H10z" ng-attr-fill="{{config.c2}}" fill="#ffffcb"/><path d="M20-10h10v120H20z" ng-attr-fill="{{config.c1}}" fill="orange"/><path d="M30-10h10v120H30z" ng-attr-fill="{{config.c2}}" fill="#ffffcb"/><path d="M40-10h10v120H40z" ng-attr-fill="{{config.c1}}" fill="orange"/><path d="M50-10h10v120H50z" ng-attr-fill="{{config.c2}}" fill="#ffffcb"/><path d="M60-10h10v120H60z" ng-attr-fill="{{config.c1}}" fill="orange"/><path d="M70-10h10v120H70z" ng-attr-fill="{{config.c2}}" fill="#ffffcb"/><path d="M80-10h10v120H80z" ng-attr-fill="{{config.c1}}" fill="orange"/><path d="M90-10h10v120H90z" ng-attr-fill="{{config.c2}}" fill="#ffffcb"/><path d="M1e2-10h10v120H1e2z" ng-attr-fill="{{config.c1}}" fill="orange"/><path d="M110-10h10v120H110z" ng-attr-fill="{{config.c1}}" fill="orange"/></g><animateTransform attributeName="transform" type="translate" values="0 0;26 0" keyTimes="0;1" ng-attr-dur="{{config.speed}}s" repeatCount="indefinite" dur="1s"/></g></pattern></defs><rect ng-attr-rx="{{config.r}}" ng-attr-ry="{{config.r}}" ng-attr-x="{{config.x}}" ng-attr-y="{{config.y}}" ng-attr-stroke="{{config.stroke}}" ng-attr-stroke-width="{{config.strokeWidth}}" ng-attr-width="{{config.width}}" ng-attr-height="{{config.height}}" fill="url(#blah)" rx="15" ry="15" x="5" y="36" stroke="orange" stroke-width="5" width="90" height="28"/></svg>