<svg class="lds-spinner" width="75" height="75" xmlns="http://www.w3.org/2000/svg" viewBox="0 0 100 100" preserveAspectRatio="xMidYMid" style="background:#fefac7 repeat"><g transform="rotate(0 50 50)"><rect x="47" y="18" rx="2" ry="2" width="6" height="14" fill="orange"><animate attributeName="opacity" values="1;0" times="0;1" dur="1s" begin="-.9375s" repeatCount="indefinite"/></rect></g><g transform="rotate(22.5 50 50)"><rect x="47" y="18" rx="2" ry="2" width="6" height="14" fill="orange"><animate attributeName="opacity" values="1;0" times="0;1" dur="1s" begin="-.875s" repeatCount="indefinite"/></rect></g><g transform="rotate(45 50 50)"><rect x="47" y="18" rx="2" ry="2" width="6" height="14" fill="orange"><animate attributeName="opacity" values="1;0" times="0;1" dur="1s" begin="-.8125s" repeatCount="indefinite"/></rect></g><g transform="rotate(67.5 50 50)"><rect x="47" y="18" rx="2" ry="2" width="6" height="14" fill="orange"><animate attributeName="opacity" values="1;0" times="0;1" dur="1s" begin="-.75s" repeatCount="indefinite"/></rect></g><g transform="rotate(90 50 50)"><rect x="47" y="18" rx="2" ry="2" width="6" height="14" fill="orange"><animate attributeName="opacity" values="1;0" times="0;1" dur="1s" begin="-.6875s" repeatCount="indefinite"/></rect></g><g transform="rotate(112.5 50 50)"><rect x="47" y="18" rx="2" ry="2" width="6" height="14" fill="orange"><animate attributeName="opacity" values="1;0" times="0;1" dur="1s" begin="-.625s" repeatCount="indefinite"/></rect></g><g transform="rotate(135 50 50)"><rect x="47" y="18" rx="2" ry="2" width="6" height="14" fill="orange"><animate attributeName="opacity" values="1;0" times="0;1" dur="1s" begin="-.5625s" repeatCount="indefinite"/></rect></g><g transform="rotate(157.5 50 50)"><rect x="47" y="18" rx="2" ry="2" width="6" height="14" fill="orange"><animate attributeName="opacity" values="1;0" times="0;1" dur="1s" begin="-.5s" repeatCount="indefinite"/></rect></g><g transform="rotate(180 50 50)"><rect x="47" y="18" rx="2" ry="2" width="6" height="14" fill="orange"><animate attributeName="opacity" values="1;0" times="0;1" dur="1s" begin="-.4375s" repeatCount="indefinite"/></rect></g><g transform="rotate(202.5 50 50)"><rect x="47" y="18" rx="2" ry="2" width="6" height="14" fill="orange"><animate attributeName="opacity" values="1;0" times="0;1" dur="1s" begin="-.375s" repeatCount="indefinite"/></rect></g><g transform="rotate(225 50 50)"><rect x="47" y="18" rx="2" ry="2" width="6" height="14" fill="orange"><animate attributeName="opacity" values="1;0" times="0;1" dur="1s" begin="-.3125s" repeatCount="indefinite"/></rect></g><g transform="rotate(247.5 50 50)"><rect x="47" y="18" rx="2" ry="2" width="6" height="14" fill="orange"><animate attributeName="opacity" values="1;0" times="0;1" dur="1s" begin="-.25s" repeatCount="indefinite"/></rect></g><g transform="rotate(270 50 50)"><rect x="47" y="18" rx="2" ry="2" width="6" height="14" fill="orange"><animate attributeName="opacity" values="1;0" times="0;1" dur="1s" begin="-.1875s" repeatCount="indefinite"/></rect></g><g transform="rotate(292.5 50 50)"><rect x="47" y="18" rx="2" ry="2" width="6" height="14" fill="orange"><animate attributeName="opacity" values="1;0" times="0;1" dur="1s" begin="-.125s" repeatCount="indefinite"/></rect></g><g transform="rotate(315 50 50)"><rect x="47" y="18" rx="2" ry="2" width="6" height="14" fill="orange"><animate attributeName="opacity" values="1;0" times="0;1" dur="1s" begin="-.0625s" repeatCount="indefinite"/></rect></g><g transform="rotate(337.5 50 50)"><rect x="47" y="18" rx="2" ry="2" width="6" height="14" fill="orange"><animate attributeName="opacity" values="1;0" times="0;1" dur="1s" begin="0" repeatCount="indefinite"/></rect></g></svg>